<svg width="70" height="201" viewBox="0 0 70 201" fill="none" xmlns="http://www.w3.org/2000/svg">
<path d="M60.7459 47.3992L62.7307 47.1533L60.7459 47.3992ZM6.46208 78.0205L4.78337 79.1076L6.46208 78.0205ZM17.1615 200.113C17.9048 200.93 19.1697 200.989 19.9868 200.246L33.3011 188.133C34.1182 187.39 34.1779 186.125 33.4346 185.308C32.6913 184.491 31.4264 184.431 30.6093 185.174L18.7743 195.941L8.00711 184.106C7.26379 183.289 5.99887 183.23 5.18184 183.973C4.3648 184.716 4.30504 185.981 5.04837 186.798L17.1615 200.113ZM42.3029 2.16301C41.5038 3.99642 41.5018 3.99554 41.4998 3.99468C41.4992 3.99443 41.4973 3.99359 41.4962 3.99307C41.4938 3.99204 41.4917 3.99109 41.4898 3.99023C41.4859 3.98851 41.4829 3.98713 41.4806 3.98611C41.4762 3.98406 41.4749 3.98344 41.4768 3.98435C41.4806 3.98616 41.497 3.9941 41.5253 4.009C41.5818 4.03876 41.6863 4.09643 41.8335 4.18865C42.1274 4.37289 42.5936 4.69631 43.1895 5.21289C44.3796 6.24458 46.1007 8.05869 48.0023 11.0969C51.8088 17.1788 56.3504 28.1876 58.761 47.6451L62.7307 47.1533C60.2698 27.2901 55.59 15.6808 51.3929 8.97477C49.2927 5.61902 47.3164 3.49672 45.8096 2.19048C45.0571 1.5381 44.425 1.09218 43.9577 0.799332C43.7243 0.652997 43.5324 0.545174 43.3878 0.469091C43.3155 0.431058 43.2551 0.400982 43.2072 0.378013C43.1833 0.366529 43.1625 0.356823 43.1449 0.34879C43.1362 0.344774 43.1282 0.341175 43.121 0.337982C43.1175 0.336385 43.1141 0.33489 43.1109 0.333494C43.1094 0.332797 43.1071 0.331822 43.1063 0.331475C43.1042 0.330527 43.1021 0.329603 42.3029 2.16301ZM58.761 47.6451C59.3315 52.2499 58.5834 55.3118 57.1834 57.3873C55.7824 59.4643 53.5241 60.857 50.4576 61.7068C44.1872 63.4446 35.4411 62.6894 26.7695 61.765C22.521 61.3121 18.3062 60.8245 14.6209 60.6455C10.9886 60.4692 7.56482 60.5697 4.99153 61.4616C3.67125 61.9193 2.44121 62.6294 1.54505 63.7418C0.625953 64.8827 0.194474 66.2776 0.200814 67.8355C0.212833 70.7878 1.79689 74.4962 4.78337 79.1076L8.14078 76.9333C5.21175 72.4105 4.20779 69.54 4.20078 67.8192C4.19762 67.0405 4.39888 66.5753 4.65997 66.2513C4.944 65.8987 5.44159 65.5391 6.30157 65.241C8.08882 64.6215 10.8361 64.4665 14.4269 64.6408C17.9648 64.8126 22.0252 65.2819 26.3455 65.7425C34.8116 66.645 44.3775 67.5427 51.5259 65.5615C55.1686 64.552 58.3964 62.7422 60.4996 59.6241C62.6038 56.5045 63.3781 52.3787 62.7307 47.1533L58.761 47.6451ZM4.78337 79.1076C17.0066 97.9817 39.1737 106.387 53.0059 112.639C56.5175 114.227 59.4443 115.648 61.6235 117.049C63.8654 118.49 64.9534 119.687 65.3036 120.674C65.5728 121.433 65.5472 122.501 64.1266 124.247C62.6637 126.044 59.951 128.24 55.5263 130.946L57.6134 134.358C62.149 131.584 65.3301 129.104 67.2287 126.772C69.1696 124.388 69.9732 121.873 69.0734 119.337C68.2546 117.029 66.1756 115.22 63.7864 113.684C61.3347 112.108 58.1665 110.582 54.6535 108.994C40.387 102.546 19.5796 94.5962 8.14078 76.9333L4.78337 79.1076ZM55.5263 130.946C37.0908 142.222 27.3812 159.2 22.2848 173.248C19.7341 180.279 18.3261 186.609 17.5549 191.187C17.169 193.477 16.9419 195.333 16.8108 196.623C16.7453 197.268 16.7037 197.772 16.6784 198.119C16.6657 198.293 16.6571 198.427 16.6515 198.52C16.6487 198.566 16.6467 198.602 16.6454 198.628C16.6447 198.641 16.6442 198.651 16.6438 198.658C16.6436 198.662 16.6435 198.665 16.6433 198.667C16.6433 198.668 16.6432 198.67 16.6432 198.67C16.6431 198.671 16.6431 198.672 18.6409 198.767C20.6386 198.861 20.6386 198.862 20.6386 198.862C20.6386 198.862 20.6386 198.862 20.6386 198.862C20.6386 198.862 20.6387 198.861 20.6387 198.859C20.6389 198.856 20.6392 198.85 20.6397 198.841C20.6406 198.824 20.6421 198.797 20.6444 198.759C20.6489 198.683 20.6564 198.566 20.6677 198.411C20.6905 198.1 20.7288 197.633 20.7903 197.027C20.9135 195.815 21.1294 194.047 21.4993 191.851C22.2395 187.458 23.5936 181.37 26.045 174.612C30.9527 161.084 40.2076 145.005 57.6134 134.358L55.5263 130.946Z" fill="black"/>
</svg>
