<svg width="70" height="64" viewBox="0 0 70 64" fill="none" xmlns="http://www.w3.org/2000/svg">
<path d="M11.2 48.5333C9.35556 48.5333 7.67778 48.0556 6.16667 47.1C4.65556 46.1444 3.44444 44.8778 2.53333 43.3C1.64444 41.7 1.2 39.9333 1.2 38C1.2 36.0667 1.64444 34.3 2.53333 32.7C3.44444 31.1 4.65556 29.8333 6.16667 28.9C7.67778 27.9444 9.35556 27.4667 11.2 27.4667C12.4889 27.4667 13.6667 27.7 14.7333 28.1667C15.8 28.6111 16.7111 29.2333 17.4667 30.0333V28H22.4667V48H17.4667V45.9667C16.7111 46.7667 15.8 47.4 14.7333 47.8667C13.6667 48.3111 12.4889 48.5333 11.2 48.5333ZM11.9 43.4333C12.8778 43.4333 13.7667 43.1889 14.5667 42.7C15.3667 42.2111 16 41.5556 16.4667 40.7333C16.9556 39.9111 17.2 39 17.2 38C17.2 37 16.9556 36.0889 16.4667 35.2667C16 34.4444 15.3667 33.7889 14.5667 33.3C13.7667 32.8111 12.8778 32.5667 11.9 32.5667C10.9222 32.5667 10.0333 32.8111 9.23333 33.3C8.43333 33.7889 7.78889 34.4444 7.3 35.2667C6.83333 36.0889 6.6 37 6.6 38C6.6 39 6.83333 39.9111 7.3 40.7333C7.78889 41.5556 8.43333 42.2111 9.23333 42.7C10.0333 43.1889 10.9222 43.4333 11.9 43.4333ZM33.4896 48.5333C31.6229 48.5333 29.934 48.0556 28.4229 47.1C26.9118 46.1444 25.7007 44.8778 24.7896 43.3C23.9007 41.7 23.4563 39.9333 23.4563 38C23.4563 36.0667 23.9007 34.3 24.7896 32.7C25.7007 31.1 26.9118 29.8333 28.4229 28.9C29.934 27.9444 31.6229 27.4667 33.4896 27.4667C34.5563 27.4667 35.5451 27.6222 36.4563 27.9333C37.3674 28.2444 38.1896 28.6889 38.9229 29.2667V16H44.7229V48H39.7229V46.0333C38.9674 46.8111 38.0563 47.4222 36.9896 47.8667C35.9229 48.3111 34.7563 48.5333 33.4896 48.5333ZM34.1563 43.4333C35.134 43.4333 36.0229 43.1889 36.8229 42.7C37.6229 42.2111 38.2563 41.5556 38.7229 40.7333C39.2118 39.9111 39.4563 39 39.4563 38C39.4563 37 39.2118 36.0889 38.7229 35.2667C38.2563 34.4444 37.6229 33.7889 36.8229 33.3C36.0229 32.8111 35.134 32.5667 34.1563 32.5667C33.1785 32.5667 32.2896 32.8111 31.4896 33.3C30.6896 33.7889 30.0451 34.4444 29.5563 35.2667C29.0896 36.0889 28.8563 37 28.8563 38C28.8563 39 29.0896 39.9111 29.5563 40.7333C30.0451 41.5556 30.6896 42.2111 31.4896 42.7C32.2896 43.1889 33.1785 43.4333 34.1563 43.4333ZM57.9458 48.5333C56.6792 48.5333 55.5125 48.3111 54.4458 47.8667C53.4014 47.4222 52.4903 46.8111 51.7125 46.0333V48H46.7125V16H52.5125V29.2667C53.2458 28.6889 54.0681 28.2444 54.9792 27.9333C55.8903 27.6222 56.8792 27.4667 57.9458 27.4667C59.8125 27.4667 61.5014 27.9444 63.0125 28.9C64.5236 29.8333 65.7236 31.1 66.6125 32.7C67.5236 34.3 67.9792 36.0667 67.9792 38C67.9792 39.9333 67.5236 41.7 66.6125 43.3C65.7236 44.8778 64.5236 46.1444 63.0125 47.1C61.5014 48.0556 59.8125 48.5333 57.9458 48.5333ZM57.2792 43.4333C58.2569 43.4333 59.1458 43.1889 59.9458 42.7C60.7458 42.2111 61.3792 41.5556 61.8458 40.7333C62.3347 39.9111 62.5792 39 62.5792 38C62.5792 37 62.3347 36.0889 61.8458 35.2667C61.3792 34.4444 60.7458 33.7889 59.9458 33.3C59.1458 32.8111 58.2569 32.5667 57.2792 32.5667C56.3014 32.5667 55.4125 32.8111 54.6125 33.3C53.8125 33.7889 53.1681 34.4444 52.6792 35.2667C52.2125 36.0889 51.9792 37 51.9792 38C51.9792 39 52.2125 39.9111 52.6792 40.7333C53.1681 41.5556 53.8125 42.2111 54.6125 42.7C55.4125 43.1889 56.3014 43.4333 57.2792 43.4333Z" fill="black"/>
</svg>
